<svg xmlns="http://www.w3.org/2000/svg"  viewBox="0 0 100 100" width="100px" height="100px"><path d="M89.5,96c-0.286,0-0.574-0.019-0.86-0.057l-74.999-10C10.424,85.514,8,82.743,8,79.5v-54 c0-3.2,2.388-5.965,5.554-6.431L88.557,8.068c0.305-0.045,0.626-0.069,0.945-0.069c1.562,0,3.072,0.563,4.253,1.588 C95.18,10.817,96,12.61,96,14.5v75c0,1.872-0.808,3.653-2.215,4.889C92.59,95.431,91.072,96,89.5,96z" opacity=".35"/><path fill="#f2f2f2" d="M87.5,94c-0.286,0-0.574-0.019-0.86-0.057l-74.999-10C8.424,83.514,6,80.743,6,77.5v-54 c0-3.2,2.388-5.965,5.554-6.431L86.557,6.068c0.305-0.045,0.626-0.069,0.945-0.069c1.562,0,3.072,0.563,4.253,1.588 C93.18,8.817,94,10.61,94,12.5v75c0,1.872-0.808,3.653-2.215,4.889C90.59,93.431,89.072,94,87.5,94z"/><path fill="#70bfff" d="M42,52l-30,0.086v25.487L42,82V52z M42,19l-30,3.67L12,48h30V19z M46,18v30l42-0.136V12L46,18z M46,52v30l42,6V52.086L46,52z"/><polygon fill="none" stroke="#40396e" stroke-linecap="round" stroke-linejoin="round" stroke-miterlimit="10" stroke-width="3" points="87.5,87.5 12.5,77.5 12.5,23.5 87.5,12.5"/></svg>